<?xml version="1.0" encoding="utf-8"?>
<!-- Svg Vector Icons : http://www.onlinewebfonts.com/icon -->
<!DOCTYPE svg PUBLIC "-//W3C//DTD SVG 1.1//EN" "http://www.w3.org/Graphics/SVG/1.1/DTD/svg11.dtd">
<svg version="1.1" xmlns="http://www.w3.org/2000/svg" xmlns:xlink="http://www.w3.org/1999/xlink" x="0px" y="0px" viewBox="0 0 1000 1000" enable-background="new 0 0 1000 1000" xml:space="preserve">
<metadata> Svg Vector Icons : http://www.onlinewebfonts.com/icon </metadata>
<g>
<path fill="#bdc3c7" d="M500,990c-66.1,0-130.3-13-190.7-38.5c-58.4-24.7-110.8-60-155.7-105c-45-45-80.3-97.4-105-155.7C23,630.3,10,566.1,10,500c0-66.1,13-130.3,38.5-190.7c24.7-58.4,60-110.8,105-155.7c45-45,97.4-80.3,155.7-105C369.7,23,433.9,10,500,10s130.3,13,190.7,38.5c58.4,24.7,110.8,60,155.7,105c45,45,80.3,97.4,105,155.7C977,369.7,990,433.9,990,500c0,66.1-13,130.3-38.5,190.7c-24.7,58.4-60,110.8-105,155.7c-45,45-97.4,80.3-155.7,105C630.3,977,566.1,990,500,990z M500,46C249.6,46,46,249.6,46,500c0,250.4,203.7,454,454,454c250.4,0,454-203.7,454-454C954,249.6,750.4,46,500,46z"/>
<path fill="#bdc3c7" d="M439.2,731.3c0,33.6,27.2,60.8,60.8,60.8s60.8-27.2,60.8-60.8s-27.2-60.8-60.8-60.8S439.2,697.8,439.2,731.3L439.2,731.3L439.2,731.3z"/>
<path fill="#bdc3c7" d="M575.2,295.7c1.3-5.5,1.9-11.1,1.9-17c0-42.6-35.6-77.1-79.4-77.1c-43.9,0-79.4,34.5-79.4,77.1c0,5.8,0.7,11.5,1.9,17L454,590.4h0.3c0.8,22.5,19.9,40.5,43.3,40.5c23.4,0,42.4-18,43.3-40.5h0.3L575.2,295.7z"/></g>
</svg>